STARTFONT 2.1
FONT -FontForge-Nimbus Sans L-Bold-R-Normal--38-360-75-75-P-237-ISO10646-1
SIZE 36 75 75
FONTBOUNDINGBOX 47 54 -6 -13
COMMENT "Generated by fontforge, http://fontforge.sourceforge.net"
COMMENT "Copyright (URW)++,Copyright 2014 by (URW)++ Design & Development"
STARTPROPERTIES 40
FOUNDRY "FontForge"
FAMILY_NAME "Nimbus Sans L"
WEIGHT_NAME "Bold"
SLANT "R"
SETWIDTH_NAME "Normal"
ADD_STYLE_NAME ""
PIXEL_SIZE 38
POINT_SIZE 360
RESOLUTION_X 75
RESOLUTION_Y 75
SPACING "P"
AVERAGE_WIDTH 237
CHARSET_REGISTRY "ISO10646"
CHARSET_ENCODING "1"
FONTNAME_REGISTRY ""
CHARSET_COLLECTIONS "ASCII ISOLatin1Encoding ISO8859-2 ISO8859-5 ISO8859-7 ISO8859-9 ISO8859-4 ISO10646-1"
FONT_NAME "NimbusSanL-Bol"
FACE_NAME "Nimbus Sans L Bold"
COPYRIGHT "Copyright (URW)++,Copyright 2014 by (URW)++ Design & Development"
FONT_VERSION "1.00"
FONT_ASCENT 28
FONT_DESCENT 10
UNDERLINE_POSITION -6
UNDERLINE_THICKNESS 3
X_HEIGHT 20
CAP_HEIGHT 27
RAW_ASCENT 729
RAW_DESCENT 271
NORM_SPACE 11
RELATIVE_WEIGHT 70
RELATIVE_SETWIDTH 50
SUPERSCRIPT_X 0
SUPERSCRIPT_Y 13
SUPERSCRIPT_SIZE 22
SUBSCRIPT_X 0
SUBSCRIPT_Y 2
SUBSCRIPT_SIZE 22
FIGURE_WIDTH 21
AVG_LOWERCASE_WIDTH 214
AVG_UPPERCASE_WIDTH 264
ENDPROPERTIES
CHARS 759
STARTCHAR space
ENCODING 32
SWIDTH 278 0
DWIDTH 11 0
BBX 1 1 0 0
BITMAP
00
ENDCHAR
STARTCHAR exclam
ENCODING 33
SWIDTH 333 0
DWIDTH 13 0
BBX 6 28 4 0
BITMAP
FC
FC
FC
FC
FC
FC
FC
FC
FC
FC
7C
7C
78
78
78
78
78
78
38
30
00
00
FC
FC
FC
FC
FC
FC
ENDCHAR
STARTCHAR quotedbl
ENCODING 34
SWIDTH 474 0
DWIDTH 18 0
BBX 14 10 2 18
BITMAP
F87C
F87C
F87C
F87C
F87C
F87C
F87C
7038
7038
7038
ENDCHAR
STARTCHAR numbersign
ENCODING 35
SWIDTH 556 0
DWIDTH 21 0
BBX 21 28 0 -2
BITMAP
01E1E0
01E1E0
03C3C0
03C3C0
03C3C0
03C3C0
7FFFF8
7FFFF8
7FFFF8
7FFFF8
078780
078780
0F0F00
0F0F00
0F0F00
0F0F00
FFFFE0
FFFFE0
FFFFE0
FFFFE0
1E1E00
1E1E00
3E3C00
3C3C00
3C3C00
3C3C00
3C3C00
3C7800
ENDCHAR
STARTCHAR dollar
ENCODING 36
SWIDTH 556 0
DWIDTH 21 0
BBX 19 34 1 -5
BITMAP
00E000
00E000
03F800
0FFE00
3FFF80
3FFF80
7EEFC0
7CE7C0
78E3C0
F8E3E0
78E000
7CE000
7EE000
7FE000
3FFC00
1FFF00
07FF80
00FFC0
00FFC0
00E7E0
00E3E0
F8E3E0
F8E3E0
F8E3E0
FCE7E0
7EFFC0
7FFFC0
3FFF80
0FFE00
03F800
00E000
00E000
00E000
00E000
ENDCHAR
STARTCHAR percent
ENCODING 37
SWIDTH 889 0
DWIDTH 34 0
BBX 32 27 1 0
BITMAP
0F800300
3FE00700
7FF00E00
7FF80E00
F8781C00
F03C1C00
F03C3800
F03C3800
F03C7000
F8787000
7FF8E000
3FF0C000
1FE1C000
078383E0
00038FF8
00071FFC
00071FFE
000E3E1E
000E3C0F
001C3C0F
00183C0F
00383C0F
00703E1E
00701FFE
00E01FFC
00E00FF8
01C003E0
ENDCHAR
STARTCHAR ampersand
ENCODING 38
SWIDTH 722 0
DWIDTH 27 0
BBX 24 27 2 0
BITMAP
01F800
07FE00
0FFF00
0FFF00
1F9F80
1F0F80
1F0F80
1F8F80
0F9F00
0FFF00
07FE00
03F800
0FF800
1FFC3C
3FFE3C
7E7E3C
FC3F7C
F81FFC
F80FF8
F807F8
FC03F0
FE0FF0
7F3FF8
7FFFFC
3FFF7C
0FFC7E
03F03F
ENDCHAR
STARTCHAR quotesingle
ENCODING 39
SWIDTH 238 0
DWIDTH 9 0
BBX 5 10 2 18
BITMAP
F8
F8
F8
F8
F8
F8
F8
70
70
70
ENDCHAR
STARTCHAR parenleft
ENCODING 40
SWIDTH 333 0
DWIDTH 13 0
BBX 9 35 2 -7
BITMAP
0780
0780
0F00
0F00
1E00
3E00
3C00
3C00
7C00
7800
F800
F800
F800
F000
F000
F000
F000
F000
F000
F000
F000
F000
F800
F800
F800
7800
7C00
7C00
3C00
3E00
1E00
1F00
0F00
0780
0780
ENDCHAR
STARTCHAR parenright
ENCODING 41
SWIDTH 333 0
DWIDTH 13 0
BBX 10 35 1 -7
BITMAP
F000
7800
7800
3C00
3C00
3E00
1E00
1F00
0F00
0F00
0F80
0F80
0780
0780
07C0
07C0
07C0
07C0
07C0
07C0
07C0
07C0
0780
0780
0F80
0F80
0F00
1F00
1E00
1E00
3C00
3C00
7800
7800
F000
ENDCHAR
STARTCHAR asterisk
ENCODING 42
SWIDTH 389 0
DWIDTH 15 0
BBX 12 12 1 16
BITMAP
0700
0700
0700
4730
FFF0
FFF0
3FC0
0F80
1F80
3DC0
78E0
10C0
ENDCHAR
STARTCHAR plus
ENCODING 43
SWIDTH 584 0
DWIDTH 22 0
BBX 18 18 2 0
BITMAP
01E000
01E000
01E000
01E000
01E000
01E000
FFFFC0
FFFFC0
FFFFC0
FFFFC0
FFFFC0
01E000
01E000
01E000
01E000
01E000
01E000
01E000
ENDCHAR
STARTCHAR comma
ENCODING 44
SWIDTH 278 0
DWIDTH 11 0
BBX 6 13 2 -7
BITMAP
FC
FC
FC
FC
FC
FC
0C
0C
1C
38
F8
F0
80
ENDCHAR
STARTCHAR hyphen
ENCODING 45
SWIDTH 333 0
DWIDTH 13 0
BBX 10 5 1 8
BITMAP
FFC0
FFC0
FFC0
FFC0
FFC0
ENDCHAR
STARTCHAR period
ENCODING 46
SWIDTH 278 0
DWIDTH 11 0
BBX 6 6 2 0
BITMAP
FC
FC
FC
FC
FC
FC
ENDCHAR
STARTCHAR slash
ENCODING 47
SWIDTH 278 0
DWIDTH 11 0
BBX 10 28 0 0
BITMAP
00C0
00C0
01C0
01C0
0180
0380
0380
0300
0300
0700
0700
0600
0E00
0E00
0C00
0C00
1C00
1C00
1800
3800
3800
3000
3000
7000
7000
6000
E000
E000
ENDCHAR
STARTCHAR zero
ENCODING 48
SWIDTH 556 0
DWIDTH 21 0
BBX 19 27 1 0
BITMAP
03F000
0FFC00
1FFF00
3FFF00
3F1F80
7E0F80
7C07C0
7C07C0
FC07C0
FC07C0
F807E0
F807E0
F807E0
F807E0
F807E0
F807E0
F807E0
FC07C0
FC07C0
7C07C0
7C0FC0
7E0F80
3FFF80
3FFF00
1FFF00
0FFC00
03F800
ENDCHAR
STARTCHAR one
ENCODING 49
SWIDTH 556 0
DWIDTH 21 0
BBX 11 27 3 0
BITMAP
00E0
01E0
01E0
07E0
1FE0
FFE0
FFE0
FFE0
03E0
03E0
03E0
03E0
03E0
03E0
03E0
03E0
03E0
03E0
03E0
03E0
03E0
03E0
03E0
03E0
03E0
03E0
03E0
ENDCHAR
STARTCHAR two
ENCODING 50
SWIDTH 556 0
DWIDTH 21 0
BBX 19 27 1 0
BITMAP
03F800
0FFE00
1FFF00
3FFF80
7F3FC0
7E0FC0
7C07C0
7C07E0
FC07E0
FC07E0
0007C0
000FC0
000FC0
001F80
007F00
00FE00
01FC00
07F000
0FE000
1FC000
3F0000
7E0000
7FFFC0
7FFFC0
FFFFC0
FFFFC0
FFFFC0
ENDCHAR
STARTCHAR three
ENCODING 51
SWIDTH 556 0
DWIDTH 21 0
BBX 19 27 1 0
BITMAP
03F800
0FFE00
3FFF00
3FFF80
7F3F80
7C0FC0
7C0FC0
F80FC0
F80FC0
000F80
001F80
01FF00
01FC00
01FF00
01FF80
000FC0
0007C0
0007C0
0007E0
F807E0
FC07C0
7C0FC0
7FFFC0
3FFF80
3FFF00
0FFE00
03F800
ENDCHAR
STARTCHAR four
ENCODING 52
SWIDTH 556 0
DWIDTH 21 0
BBX 19 27 1 0
BITMAP
007F00
007F00
00FF00
00FF00
01FF00
03DF00
03DF00
079F00
079F00
0F1F00
1E1F00
1E1F00
3C1F00
3C1F00
781F00
701F00
F01F00
FFFFE0
FFFFE0
FFFFE0
FFFFE0
001F00
001F00
001F00
001F00
001F00
001F00
ENDCHAR
STARTCHAR five
ENCODING 53
SWIDTH 556 0
DWIDTH 21 0
BBX 19 27 1 0
BITMAP
1FFFC0
1FFFC0
1FFFC0
1FFFC0
3FFFC0
3C0000
3C0000
3C0000
3C0000
3DFC00
7FFE00
7FFF00
7FFF80
7E1FC0
7C0FC0
0007C0
0007E0
0007E0
0007E0
F807C0
F807C0
FC0FC0
7FFF80
7FFF80
3FFF00
1FFE00
03F000
ENDCHAR
STARTCHAR six
ENCODING 54
SWIDTH 556 0
DWIDTH 21 0
BBX 19 27 1 0
BITMAP
01F800
07FE00
0FFF80
1FFF80
3F9FC0
3E07C0
7C0000
7C0000
7C0000
FCFC00
FFFF00
FFFF80
FFFF80
FF1FC0
FE07C0
FC07E0
FC07E0
F803E0
F803E0
7C07E0
7C07C0
7E0FC0
3FFFC0
3FFF80
1FFF00
0FFE00
03F800
ENDCHAR
STARTCHAR seven
ENCODING 55
SWIDTH 556 0
DWIDTH 21 0
BBX 19 27 1 0
BITMAP
FFFFE0
FFFFE0
FFFFE0
FFFFE0
FFFFE0
0007C0
000F80
001F00
001F00
003E00
007E00
007C00
00F800
00F800
01F000
01F000
03F000
03E000
03E000
07E000
07C000
07C000
07C000
07C000
0FC000
0FC000
0F8000
ENDCHAR
STARTCHAR eight
ENCODING 56
SWIDTH 556 0
DWIDTH 21 0
BBX 19 27 1 0
BITMAP
03F800
0FFE00
1FFF00
3FFF80
7F1F80
7C07C0
7C07C0
7807C0
7807C0
7C07C0
3E0F80
1FFF00
0FFE00
1FFF00
7FFF80
7E0FC0
FC07E0
F807E0
F803E0
F803E0
FC07E0
FC0FC0
7FFFC0
7FFF80
3FFF00
0FFE00
03F800
ENDCHAR
STARTCHAR nine
ENCODING 57
SWIDTH 556 0
DWIDTH 21 0
BBX 19 27 1 0
BITMAP
03F000
0FFC00
1FFE00
3FFF00
7F3F80
7C0F80
FC07C0
F807C0
F807C0
F807C0
F807C0
FC07E0
7C0FE0
7F3FE0
3FFFE0
3FFFC0
1FF7C0
07E7C0
0007C0
0007C0
FC0F80
7C0F80
7FFF80
7FFF00
3FFE00
0FFC00
03F000
ENDCHAR
STARTCHAR colon
ENCODING 58
SWIDTH 333 0
DWIDTH 13 0
BBX 6 20 4 0
BITMAP
FC
FC
FC
FC
FC
FC
00
00
00
00
00
00
00
00
FC
FC
FC
FC
FC
FC
ENDCHAR
STARTCHAR semicolon
ENCODING 59
SWIDTH 333 0
DWIDTH 13 0
BBX 6 27 4 -7
BITMAP
FC
FC
FC
FC
FC
FC
00
00
00
00
00
00
00
00
FC
FC
FC
FC
FC
FC
0C
1C
1C
38
F8
F0
80
ENDCHAR
STARTCHAR less
ENCODING 60
SWIDTH 584 0
DWIDTH 22 0
BBX 18 18 2 0
BITMAP
0000C0
0007C0
003FC0
00FFC0
07FF00
3FF800
FFC000
FE0000
F80000
FC0000
FF8000
7FE000
1FFC00
03FF80
007FC0
001FC0
0003C0
000040
ENDCHAR
STARTCHAR equal
ENCODING 61
SWIDTH 584 0
DWIDTH 22 0
BBX 18 14 2 2
BITMAP
FFFFC0
FFFFC0
FFFFC0
FFFFC0
FFFFC0
000000
000000
000000
000000
FFFFC0
FFFFC0
FFFFC0
FFFFC0
FFFFC0
ENDCHAR
STARTCHAR greater
ENCODING 62
SWIDTH 584 0
DWIDTH 22 0
BBX 18 18 2 0
BITMAP
C00000
F80000
FE0000
FFC000
7FF800
0FFE00
01FFC0
003FC0
0007C0
000FC0
007FC0
03FF80
1FFC00
7FF000
FF8000
FC0000
F00000
800000
ENDCHAR
STARTCHAR question
ENCODING 63
SWIDTH 611 0
DWIDTH 23 0
BBX 19 28 2 0
BITMAP
07FC00
1FFF00
3FFF80
3FFFC0
7F0FC0
7E07E0
7C07E0
7C03E0
FC03E0
FC03E0
0007E0
000FE0
001FC0
003F80
007F00
00FE00
00FC00
00F800
01F000
01F000
000000
000000
01F800
01F800
01F800
01F800
01F800
01F800
ENDCHAR
STARTCHAR at
ENCODING 64
SWIDTH 975 0
DWIDTH 37 0
BBX 35 33 1 -5
BITMAP
0003FE0000
001FFFC000
007FFFF000
00FC01F800
03F0007E00
07C0001F00
0F80000F00
0F00000780
1E007003C0
3C03FDE1C0
3C07FFC1C0
780F8FC1E0
781E07C1E0
703C07C0E0
F03C0380E0
F0380381E0
F0780781E0
F0780701E0
F0700701C0
F0780F03C0
F0780F0780
F0781F0F80
707C7F1F00
783FF7FE00
3C1FE7FC00
3C07C1F000
1E00000000
0F80000000
07C0000000
03F803C000
01FFFFC000
007FFFC000
000FFE0000
ENDCHAR
STARTCHAR A
ENCODING 65
SWIDTH 722 0
DWIDTH 27 0
BBX 26 28 1 0
BITMAP
003F0000
007F8000
007F8000
007F8000
00FFC000
00FFC000
00FFC000
01FFE000
01F3E000
03F3E000
03F3F000
03E1F000
07E1F000
07E1F800
07C0F800
0FC0F800
0FC0FC00
0FFFFC00
1FFFFC00
1FFFFE00
1FFFFE00
3FFFFE00
3F003F00
3E003F00
7E001F80
7E001F80
7C001F80
FC000FC0
ENDCHAR
STARTCHAR B
ENCODING 66
SWIDTH 722 0
DWIDTH 27 0
BBX 22 28 3 0
BITMAP
FFFF00
FFFFC0
FFFFE0
FFFFF0
FFFFF8
FC01F8
FC00F8
FC00FC
FC00F8
FC00F8
FC01F8
FFFFF0
FFFFE0
FFFFC0
FFFFE0
FFFFF8
FC01F8
FC00FC
FC007C
FC007C
FC007C
FC00FC
FC00FC
FFFFF8
FFFFF8
FFFFF0
FFFFE0
FFFF80
ENDCHAR
STARTCHAR C
ENCODING 67
SWIDTH 722 0
DWIDTH 27 0
BBX 24 28 2 0
BITMAP
00FF00
03FFE0
0FFFF0
1FFFF8
3FFFFC
3FC0FE
7F007E
7E003F
FE003F
FC003F
FC0000
FC0000
F80000
F80000
F80000
F80000
FC0000
FC0000
FC003F
FC003F
7E003F
7F007E
3F80FE
3FFFFC
1FFFF8
0FFFF0
03FFE0
00FF00
ENDCHAR
STARTCHAR D
ENCODING 68
SWIDTH 722 0
DWIDTH 27 0
BBX 23 28 3 0
BITMAP
FFFE00
FFFFC0
FFFFE0
FFFFF0
FFFFF0
FC03F8
FC01F8
FC00FC
FC00FC
FC007C
FC007E
FC007E
FC007E
FC007E
FC007E
FC007E
FC007E
FC007E
FC007C
FC00FC
FC00FC
FC01F8
FC03F8
FFFFF0
FFFFF0
FFFFE0
FFFFC0
FFFE00
ENDCHAR
STARTCHAR E
ENCODING 69
SWIDTH 667 0
DWIDTH 25 0
BBX 21 28 3 0
BITMAP
FFFFF0
FFFFF0
FFFFF0
FFFFF0
FFFFF0
FC0000
FC0000
FC0000
FC0000
FC0000
FC0000
FFFFE0
FFFFE0
FFFFE0
FFFFE0
FFFFE0
FC0000
FC0000
FC0000
FC0000
FC0000
FC0000
FC0000
FFFFF8
FFFFF8
FFFFF8
FFFFF8
FFFFF8
ENDCHAR
STARTCHAR F
ENCODING 70
SWIDTH 611 0
DWIDTH 23 0
BBX 19 28 3 0
BITMAP
FFFFE0
FFFFE0
FFFFE0
FFFFE0
FFFFE0
FC0000
FC0000
FC0000
FC0000
FC0000
FC0000
FFFFC0
FFFFC0
FFFFC0
FFFFC0
FFFFC0
FC0000
FC0000
FC0000
FC0000
FC0000
FC0000
FC0000
FC0000
FC0000
FC0000
FC0000
FC0000
ENDCHAR
STARTCHAR G
ENCODING 71
SWIDTH 778 0
DWIDTH 30 0
BBX 25 28 2 0
BITMAP
007F8000
03FFF000
07FFF800
0FFFFC00
1FFFFE00
3FC0FF00
7F003F00
7E001F80
7E001F80
FC000000
FC000000
FC000000
F8000000
F803FF80
F803FF80
F803FF80
F803FF80
FC03FF80
FC000F80
FE000F80
7E001F80
7F003F80
3FC0FF80
1FFFFF80
0FFFF780
07FFE780
03FFC780
007F0000
ENDCHAR
STARTCHAR H
ENCODING 72
SWIDTH 722 0
DWIDTH 27 0
BBX 22 28 3 0
BITMAP
F800FC
F800FC
F800FC
F800FC
F800FC
F800FC
F800FC
F800FC
F800FC
F800FC
FFFFFC
FFFFFC
FFFFFC
FFFFFC
FFFFFC
F800FC
F800FC
F800FC
F800FC
F800FC
F800FC
F800FC
F800FC
F800FC
F800FC
F800FC
F800FC
F800FC
ENDCHAR
STARTCHAR I
ENCODING 73
SWIDTH 278 0
DWIDTH 11 0
BBX 6 28 2 0
BITMAP
FC
FC
FC
FC
FC
FC
FC
FC
FC
FC
FC
FC
FC
FC
FC
FC
FC
FC
FC
FC
FC
FC
FC
FC
FC
FC
FC
FC
ENDCHAR
STARTCHAR J
ENCODING 74
SWIDTH 556 0
DWIDTH 21 0
BBX 17 28 1 0
BITMAP
000F80
000F80
000F80
000F80
000F80
000F80
000F80
000F80
000F80
000F80
000F80
000F80
000F80
000F80
000F80
000F80
000F80
FC0F80
FC0F80
FC0F80
FC0F80
FC1F80
FE1F80
7FFF80
7FFF00
3FFF00
1FFC00
07F000
ENDCHAR
STARTCHAR K
ENCODING 75
SWIDTH 722 0
DWIDTH 27 0
BBX 24 28 3 0
BITMAP
FC00FE
FC01FC
FC03F8
FC07F0
FC0FE0
FC1FC0
FC1F80
FC3F00
FC7E00
FCFC00
FDF800
FFF800
FFF000
FFF800
FFFC00
FFFE00
FF7E00
FE3F00
FC3F80
FC1FC0
FC0FC0
FC07E0
FC07F0
FC03F8
FC01FC
FC00FC
FC00FE
FC007F
ENDCHAR
STARTCHAR L
ENCODING 76
SWIDTH 611 0
DWIDTH 23 0
BBX 19 28 3 0
BITMAP
FC0000
FC0000
FC0000
FC0000
FC0000
FC0000
FC0000
FC0000
FC0000
FC0000
FC0000
FC0000
FC0000
FC0000
FC0000
FC0000
FC0000
FC0000
FC0000
FC0000
FC0000
FC0000
FC0000
FFFFE0
FFFFE0
FFFFE0
FFFFE0
FFFFE0
ENDCHAR
STARTCHAR M
ENCODING 77
SWIDTH 833 0
DWIDTH 32 0
BBX 27 28 2 0
BITMAP
FF801FE0
FF801FE0
FFC03FE0
FFC03FE0
FFC03FE0
FFC03FE0
FFC07FE0
FFE07BE0
FDE07BE0
FDE07BE0
FDE07BE0
FDF0FBE0
FCF0F3E0
FCF0F3E0
FCF0F3E0
FCF8F3E0
FC79E3E0
FC79E3E0
FC79E3E0
FC79E3E0
FC7FE3E0
FC3FC3E0
FC3FC3E0
FC3FC3E0
FC3FC3E0
FC1F83E0
FC1F83E0
FC1F83E0
ENDCHAR
STARTCHAR N
ENCODING 78
SWIDTH 722 0
DWIDTH 27 0
BBX 22 28 3 0
BITMAP
FC00FC
FC00FC
FE00FC
FE00FC
FF00FC
FF80FC
FF80FC
FFC0FC
FFC0FC
FBE0FC
FBE0FC
F9F0FC
F9F8FC
F8F8FC
F87CFC
F87CFC
F83EFC
F83FFC
F81FFC
F80FFC
F80FFC
F807FC
F807FC
F803FC
F803FC
F801FC
F800FC
F800FC
ENDCHAR
STARTCHAR O
ENCODING 79
SWIDTH 778 0
DWIDTH 30 0
BBX 26 28 2 0
BITMAP
007F8000
03FFE000
07FFF800
0FFFFC00
1FFFFE00
3FC0FF00
7F003F00
7E003F80
FE001F80
FC000F80
FC000FC0
F8000FC0
F8000FC0
F8000FC0
F8000FC0
F8000FC0
F8000FC0
FC000FC0
FC000FC0
FC001F80
7E003F80
7F007F00
3FC0FF00
1FFFFE00
0FFFFC00
07FFF800
03FFE000
007F8000
ENDCHAR
STARTCHAR P
ENCODING 80
SWIDTH 667 0
DWIDTH 25 0
BBX 21 28 3 0
BITMAP
FFFF00
FFFFC0
FFFFE0
FFFFF0
FFFFF0
FC03F8
FC01F8
FC01F8
FC01F8
FC01F8
FC01F8
FC01F8
FC03F0
FFFFF0
FFFFF0
FFFFE0
FFFFC0
FFFF00
FC0000
FC0000
FC0000
FC0000
FC0000
FC0000
FC0000
FC0000
FC0000
FC0000
ENDCHAR
STARTCHAR Q
ENCODING 81
SWIDTH 778 0
DWIDTH 30 0
BBX 26 29 2 -1
BITMAP
007F8000
03FFE000
07FFF800
0FFFFC00
1FFFFE00
3FC0FF00
7F003F00
7E001F80
7E001F80
FC000FC0
FC000FC0
FC000FC0
F8000FC0
F80007C0
F80007C0
F8000FC0
FC000FC0
FC008FC0
FC01CFC0
7E03FF80
7E03FF80
7F01FF00
3FC0FF00
1FFFFF00
0FFFFF80
07FFFFC0
03FFE7C0
007F8380
00000100
ENDCHAR
STARTCHAR R
ENCODING 82
SWIDTH 722 0
DWIDTH 27 0
BBX 23 28 3 0
BITMAP
FFFFC0
FFFFF0
FFFFF8
FFFFF8
FFFFFC
FC00FC
FC00FC
FC007C
FC007C
FC00FC
FC00FC
FC01F8
FFFFF8
FFFFE0
FFFFC0
FFFFF0
FFFFF8
FC01F8
FC00F8
FC00F8
FC00F8
FC00F8
FC00F8
FC00F8
FC00F8
FC00FC
FC00FC
FC00FE
ENDCHAR
STARTCHAR S
ENCODING 83
SWIDTH 667 0
DWIDTH 25 0
BBX 23 28 1 0
BITMAP
01FF00
0FFFC0
1FFFF0
3FFFF0
3FFFF8
7E01F8
7C00FC
7C00FC
7C007C
7E0000
7F0000
7FF800
3FFFC0
1FFFF0
07FFF8
007FFC
0003FE
0000FE
00007E
FC003E
FC007E
7E007E
7F00FC
7FFFFC
3FFFF8
1FFFF0
07FFE0
01FF00
ENDCHAR
STARTCHAR T
ENCODING 84
SWIDTH 611 0
DWIDTH 23 0
BBX 22 28 1 0
BITMAP
FFFFFC
FFFFFC
FFFFFC
FFFFFC
FFFFFC
00FC00
00FC00
00FC00
00FC00
00FC00
00FC00
00FC00
00FC00
00FC00
00FC00
00FC00
00FC00
00FC00
00FC00
00FC00
00FC00
00FC00
00FC00
00FC00
00FC00
00FC00
00FC00
00FC00
ENDCHAR
STARTCHAR U
ENCODING 85
SWIDTH 722 0
DWIDTH 27 0
BBX 22 28 3 0
BITMAP
FC00FC
FC00FC
FC00FC
FC00FC
FC00FC
FC00FC
FC00FC
FC00FC
FC00FC
FC00FC
FC00FC
FC00FC
FC00FC
FC00FC
FC00FC
FC00FC
FC00FC
FC00FC
FC00FC
FC00FC
FC00FC
FC01F8
7F03F8
7FFFF8
3FFFF0
1FFFE0
0FFF80
01FE00
ENDCHAR
STARTCHAR V
ENCODING 86
SWIDTH 667 0
DWIDTH 25 0
BBX 23 28 1 0
BITMAP
FC003E
FC007E
7C007E
7E007C
7E007C
3E00FC
3F00F8
3F00F8
1F01F8
1F01F0
1F81F0
0F81F0
0F83E0
0FC3E0
07C3E0
07C7C0
07C7C0
03E7C0
03E780
03EF80
01FF80
01FF00
01FF00
00FF00
00FE00
00FE00
007E00
007C00
ENDCHAR
STARTCHAR W
ENCODING 87
SWIDTH 944 0
DWIDTH 36 0
BBX 34 28 1 0
BITMAP
FC03F00FC0
FC03F00FC0
FC03F00FC0
FC07F00F80
7C07F81F80
7E07F81F80
7E07F81F80
3E07F81F00
3E0F7C1F00
3E0F3C3F00
3F0F3C3F00
1F0F3C3E00
1F0F3C3E00
1F1E1E3E00
0F9E1E7C00
0F9E1E7C00
0F9E1E7C00
0F9E1E7C00
07BC0F7800
07FC0F7800
07FC0FF800
07FC0FF800
03FC0FF000
03F807F000
03F807F000
01F807E000
01F807E000
01F807E000
ENDCHAR
STARTCHAR X
ENCODING 88
SWIDTH 667 0
DWIDTH 25 0
BBX 24 28 1 0
BITMAP
FE007E
7F00FE
3F01FC
3F81F8
1F83F8
1FC3F0
0FC7E0
07E7E0
07EFC0
03FFC0
03FF80
01FF00
00FF00
00FE00
00FE00
00FF00
01FF80
03FF80
03FFC0
07EFE0
0FE7E0
0FC7F0
1F83F0
1F81F8
3F01FC
7F00FC
7E00FE
FE007F
ENDCHAR
STARTCHAR Y
ENCODING 89
SWIDTH 667 0
DWIDTH 25 0
BBX 23 28 1 0
BITMAP
FE007E
7E007E
7F00FC
3F00FC
3F01F8
1F81F8
1F81F0
0FC3F0
0FC3E0
07E7E0
07E7C0
03FFC0
01FF80
01FF80
00FF00
00FF00
007E00
007E00
007E00
007E00
007E00
007E00
007E00
007E00
007E00
007E00
007E00
007E00
ENDCHAR
STARTCHAR Z
ENCODING 90
SWIDTH 611 0
DWIDTH 23 0
BBX 21 28 1 0
BITMAP
FFFFF8
FFFFF8
FFFFF8
FFFFF8
FFFFF8
0003F0
0007F0
000FE0
001FC0
001F80
003F80
007F00
00FE00
00FC00
01FC00
03F800
07F000
07E000
0FC000
1FC000
3F8000
7F0000
7E0000
FFFFF8
FFFFF8
FFFFF8
FFFFF8
FFFFF8
ENDCHAR
STARTCHAR bracketleft
ENCODING 91
SWIDTH 333 0
DWIDTH 13 0
BBX 10 36 2 -8
BITMAP
FFC0
FFC0
FFC0
FFC0
F800
F800
F800
F800
F800
F800
F800
F800
F800
F800
F800
F800
F800
F800
F800
F800
F800
F800
F800
F800
F800
F800
F800
F800
F800
F800
F800
F800
FFC0
FFC0
FFC0
FFC0
ENDCHAR
STARTCHAR backslash
ENCODING 92
SWIDTH 278 0
DWIDTH 11 0
BBX 11 28 0 0
BITMAP
C000
C000
E000
6000
6000
7000
7000
3000
3800
3800
1800
1C00
1C00
0C00
0E00
0E00
0600
0700
0700
0300
0380
0380
0180
01C0
01C0
00C0
00E0
00E0
ENDCHAR
STARTCHAR bracketright
ENCODING 93
SWIDTH 333 0
DWIDTH 13 0
BBX 9 36 1 -8
BITMAP
FF80
FF80
FF80
FF80
0F80
0F80
0F80
0F80
0F80
0F80
0F80
0F80
0F80
0F80
0F80
0F80
0F80
0F80
0F80
0F80
0F80
0F80
0F80
0F80
0F80
0F80
0F80
0F80
0F80
0F80
0F80
0F80
FF80
FF80
FF80
FF80
ENDCHAR
STARTCHAR asciicircum
ENCODING 94
SWIDTH 584 0
DWIDTH 22 0
BBX 18 16 2 10
BITMAP
03F000
03F000
07F800
07F800
07F800
0F7C00
0F3C00
0F3E00
1E1E00
1E1E00
3E1F00
3C0F00
3C0F80
780780
780780
F807C0
ENDCHAR
STARTCHAR underscore
ENCODING 95
SWIDTH 556 0
DWIDTH 21 0
BBX 23 3 -1 -7
BITMAP
FFFFFE
FFFFFE
FFFFFE
ENDCHAR
STARTCHAR grave
ENCODING 96
SWIDTH 333 0
DWIDTH 13 0
BBX 7 6 1 23
BITMAP
F8
78
38
3C
1C
0E
ENDCHAR
STARTCHAR a
ENCODING 97
SWIDTH 556 0
DWIDTH 21 0
BBX 19 21 1 0
BITMAP
07F800
1FFE00
3FFF80
7FFF80
7F1F80
7C0FC0
7C0FC0
000FC0
00FFC0
0FFFC0
3FFFC0
7F0FC0
FC0FC0
F80FC0
F80FC0
FC1FC0
FE3FC0
7FFFC0
7FF7C0
3FE7E0
1F87E0
ENDCHAR
STARTCHAR b
ENCODING 98
SWIDTH 611 0
DWIDTH 23 0
BBX 20 28 2 0
BITMAP
FC0000
FC0000
FC0000
FC0000
FC0000
FC0000
FC0000
FCFC00
FDFF00
FFFF80
FFFFC0
FFFFC0
FE07E0
FE07E0
FC03E0
FC03F0
FC03F0
FC01F0
FC03F0
FC03F0
FC03F0
FC07E0
FE07E0
FF9FC0
FFFFC0
FFFF80
FFFF00
FCFC00
ENDCHAR
STARTCHAR c
ENCODING 99
SWIDTH 556 0
DWIDTH 21 0
BBX 19 21 1 0
BITMAP
03F800
0FFE00
1FFF80
3FFF80
3F9FC0
7E07C0
7C07E0
7C03E0
FC0000
FC0000
FC0000
FC0000
FC0000
7C03E0
7C07E0
7E07C0
3F1FC0
3FFF80
1FFF00
0FFE00
03F800
ENDCHAR
STARTCHAR d
ENCODING 100
SWIDTH 611 0
DWIDTH 23 0
BBX 20 28 1 0
BITMAP
0003F0
0003F0
0003F0
0003F0
0003F0
0003F0
0003F0
03F3F0
0FFBF0
1FFFF0
3FFFF0
3F9FF0
7E07F0
7C07F0
FC03F0
FC03F0
F803F0
F803F0
F803F0
FC03F0
FC03F0
7C07F0
7E07F0
7FBFF0
3FFFF0
3FFFF0
0FFBF0
03F3F0
ENDCHAR
STARTCHAR e
ENCODING 101
SWIDTH 556 0
DWIDTH 21 0
BBX 19 21 1 0
BITMAP
03F800
0FFE00
1FFF00
3FFF80
7E1F80
7C0FC0
FC07C0
F807E0
FFFFE0
FFFFE0
FFFFE0
FFFFE0
F80000
F80000
F80000
7C07C0
7E0FC0
3FFF80
1FFF00
0FFE00
03F800
ENDCHAR
STARTCHAR f
ENCODING 102
SWIDTH 333 0
DWIDTH 13 0
BBX 11 28 1 0
BITMAP
07E0
1FE0
1FE0
1FE0
3F00
3F00
3F00
FFE0
FFE0
FFE0
FFE0
3F00
3F00
3F00
3F00
3F00
3F00
3F00
3F00
3F00
3F00
3F00
3F00
3F00
3F00
3F00
3F00
3F00
ENDCHAR
STARTCHAR g
ENCODING 103
SWIDTH 611 0
DWIDTH 23 0
BBX 18 28 2 -7
BITMAP
07C7C0
0FF7C0
1FFFC0
3FFFC0
7F7FC0
7E1FC0
FC0FC0
F807C0
F807C0
F807C0
F807C0
F807C0
F807C0
F807C0
FC0FC0
FC1FC0
7F7FC0
7FFFC0
3FFFC0
1FF7C0
07C7C0
0007C0
0007C0
FC0FC0
FE1F80
7FFF80
3FFF00
0FFC00
ENDCHAR
STARTCHAR h
ENCODING 104
SWIDTH 611 0
DWIDTH 23 0
BBX 18 28 3 0
BITMAP
F80000
F80000
F80000
F80000
F80000
F80000
F80000
F8FC00
FBFE00
FFFF00
FFFF80
FFFF80
FC1F80
F80FC0
F80FC0
F80FC0
F80FC0
F80FC0
F80FC0
F80FC0
F80FC0
F80FC0
F80FC0
F80FC0
F80FC0
F80FC0
F80FC0
F80FC0
ENDCHAR
STARTCHAR i
ENCODING 105
SWIDTH 278 0
DWIDTH 11 0
BBX 5 28 3 0
BITMAP
F8
F8
F8
F8
F8
00
00
F8
F8
F8
F8
F8
F8
F8
F8
F8
F8
F8
F8
F8
F8
F8
F8
F8
F8
F8
F8
F8
ENDCHAR
STARTCHAR j
ENCODING 106
SWIDTH 278 0
DWIDTH 11 0
BBX 8 36 0 -8
BITMAP
1F
1F
1F
1F
1F
00
00
1F
1F
1F
1F
1F
1F
1F
1F
1F
1F
1F
1F
1F
1F
1F
1F
1F
1F
1F
1F
1F
1F
1F
1F
3F
FF
FF
FE
FC
ENDCHAR
STARTCHAR k
ENCODING 107
SWIDTH 556 0
DWIDTH 21 0
BBX 19 28 2 0
BITMAP
FC0000
FC0000
FC0000
FC0000
FC0000
FC0000
FC0000
FC0FC0
FC1F80
FC3F00
FC7E00
FC7C00
FCF800
FDF800
FFF000
FFF000
FFF000
FFF800
FFF800
FEFC00
FC7E00
FC7E00
FC3F00
FC3F00
FC1F80
FC1F80
FC0FC0
FC0FE0
ENDCHAR
STARTCHAR l
ENCODING 108
SWIDTH 278 0
DWIDTH 11 0
BBX 5 28 3 0
BITMAP
F8
F8
F8
F8
F8
F8
F8
F8
F8
F8
F8
F8
F8
F8
F8
F8
F8
F8
F8
F8
F8
F8
F8
F8
F8
F8
F8
F8
ENDCHAR
STARTCHAR m
ENCODING 109
SWIDTH 889 0
DWIDTH 34 0
BBX 29 21 2 0
BITMAP
FCFC0FC0
FFFF3FE0
FFFF7FF0
FFFFFFF8
FFFFFFF8
FE0FE1F8
FC0FC0F8
FC0FC0F8
FC0F80F8
FC0F80F8
FC0F80F8
FC0F80F8
FC0F80F8
FC0F80F8
FC0F80F8
FC0F80F8
FC0F80F8
FC0F80F8
FC0F80F8
FC0F80F8
FC0F80F8
ENDCHAR
STARTCHAR n
ENCODING 110
SWIDTH 611 0
DWIDTH 23 0
BBX 19 21 2 0
BITMAP
FC7E00
FDFF80
FFFF80
FFFFC0
FFFFC0
FE07E0
FC07E0
FC07E0
FC07E0
FC07E0
FC07E0
FC07E0
FC07E0
FC07E0
FC07E0
FC07E0
FC07E0
FC07E0
FC07E0
FC07E0
FC07E0
ENDCHAR
STARTCHAR o
ENCODING 111
SWIDTH 611 0
DWIDTH 23 0
BBX 21 21 1 0
BITMAP
01FC00
07FF00
1FFFC0
3FFFC0
3F8FE0
7E03F0
7E03F0
7C01F0
FC01F0
FC01F8
FC01F8
FC01F8
FC01F0
7C01F0
7E03F0
7E07F0
3F8FE0
3FFFC0
1FFFC0
07FF00
01FC00
ENDCHAR
STARTCHAR p
ENCODING 112
SWIDTH 611 0
DWIDTH 23 0
BBX 20 28 2 -7
BITMAP
FCFC00
FDFF00
FFFF80
FFFFC0
FF9FE0
FE07E0
FC07E0
FC03E0
FC03F0
FC03F0
FC03F0
FC03F0
FC03F0
FC03E0
FC07E0
FE07E0
FF9FC0
FFFFC0
FFFF80
FDFF00
FC7C00
FC0000
FC0000
FC0000
FC0000
FC0000
FC0000
FC0000
ENDCHAR
STARTCHAR q
ENCODING 113
SWIDTH 611 0
DWIDTH 23 0
BBX 20 28 1 -7
BITMAP
03E3F0
0FFBF0
1FFFF0
3FFFF0
3F9FF0
7E07F0
7C07F0
FC03F0
FC03F0
F803F0
F803F0
F803F0
FC03F0
FC03F0
7C07F0
7E07F0
7FBFF0
3FFFF0
1FFFF0
0FFBF0
03E3F0
0003F0
0003F0
0003F0
0003F0
0003F0
0003F0
0003F0
ENDCHAR
STARTCHAR r
ENCODING 114
SWIDTH 389 0
DWIDTH 15 0
BBX 12 21 2 0
BITMAP
FC70
FCF0
FDF0
FFF0
FFF0
FF80
FE00
FC00
FC00
FC00
FC00
FC00
FC00
FC00
FC00
FC00
FC00
FC00
FC00
FC00
FC00
ENDCHAR
STARTCHAR s
ENCODING 115
SWIDTH 556 0
DWIDTH 21 0
BBX 19 21 1 0
BITMAP
03F800
1FFE00
3FFF00
3FFF80
7E1FC0
7C07C0
7C07C0
7F0000
7FF000
3FFE00
1FFF80
07FFC0
007FC0
000FE0
F807E0
FC07E0
FE0FC0
7FFFC0
3FFF80
1FFF00
07FC00
ENDCHAR
STARTCHAR t
ENCODING 116
SWIDTH 333 0
DWIDTH 13 0
BBX 10 27 1 0
BITMAP
3E00
3E00
3E00
3E00
3E00
3E00
FFC0
FFC0
FFC0
FFC0
3E00
3E00
3E00
3E00
3E00
3E00
3E00
3E00
3E00
3E00
3E00
3E00
3F00
3FC0
1FC0
1FC0
07C0
ENDCHAR
STARTCHAR u
ENCODING 117
SWIDTH 611 0
DWIDTH 23 0
BBX 19 21 2 0
BITMAP
FC07E0
FC07E0
FC07E0
FC07E0
FC07E0
FC07E0
FC07E0
FC07E0
FC07E0
FC07E0
FC07E0
FC07E0
FC07E0
FC07E0
FC07E0
FC0FE0
FFFFE0
7FFFE0
7FFFE0
3FF7E0
0FC7E0
ENDCHAR
STARTCHAR v
ENCODING 118
SWIDTH 556 0
DWIDTH 21 0
BBX 19 21 1 0
BITMAP
F803E0
FC07E0
FC07E0
7C07C0
7C07C0
7E0FC0
3E0F80
3E0F80
3F1F80
1F1F00
1F1F00
1F1E00
0FBE00
0FBE00
0FBC00
07FC00
07FC00
07F800
03F800
03F800
01F000
ENDCHAR
STARTCHAR w
ENCODING 119
SWIDTH 778 0
DWIDTH 30 0
BBX 29 21 0 0
BITMAP
FC0FC1F8
7C0FC1F8
7C0FC1F0
7C1FC1F0
7E1FC1F0
3E1FE3F0
3E1FE3E0
3E3DE3E0
1F3DE3E0
1F3DE3C0
1F3CF7C0
1F3CF7C0
0F78F7C0
0FF8F780
0FF8F780
0FF87F80
07F07F80
07F07F00
07F07F00
03F07F00
03F03E00
ENDCHAR
STARTCHAR x
ENCODING 120
SWIDTH 556 0
DWIDTH 21 0
BBX 19 21 1 0
BITMAP
FC07E0
7E0FC0
7E1FC0
3F1F80
1FBF00
1FBF00
0FFE00
07FC00
07FC00
03F800
03F800
03F800
07FC00
0FFC00
0FFE00
1FBF00
3F1F00
3F1F80
7E0FC0
7E0FC0
FC07E0
ENDCHAR
STARTCHAR y
ENCODING 121
SWIDTH 556 0
DWIDTH 21 0
BBX 20 29 0 -8
BITMAP
FC01F0
7E01F0
7E03F0
3E03E0
3F03E0
3F07E0
1F07C0
1F07C0
1F87C0
0F8F80
0F8F80
0FCF00
07DF00
07DF00
07FE00
03FE00
03FE00
01FC00
01FC00
01FC00
00F800
00F800
00F800
01F000
01F000
1FF000
1FE000
1FC000
1F8000
ENDCHAR
STARTCHAR z
ENCODING 122
SWIDTH 500 0
DWIDTH 19 0
BBX 17 21 1 0
BITMAP
FFFF00
FFFF00
FFFF00
FFFF00
003F00
007E00
00FE00
01FC00
03F800
03F000
07E000
0FE000
1FC000
3F8000
3F0000
7E0000
FE0000
FFFF80
FFFF80
FFFF80
FFFF80
ENDCHAR
STARTCHAR braceleft
ENCODING 123
SWIDTH 389 0
DWIDTH 15 0
BBX 11 36 1 -8
BITMAP
03E0
07E0
0FE0
0FE0
1F00
1F00
1F00
1F00
1F00
1F00
1F00
1F00
1F00
1F00
1F00
1F00
FE00
F800
FE00
FE00
1F00
1F00
1F00
1F00
1F00
1F00
1F00
1F00
1F00
1F00
1F00
0F00
0FE0
0FE0
07E0
03E0
ENDCHAR
STARTCHAR bar
ENCODING 124
SWIDTH 280 0
DWIDTH 11 0
BBX 3 35 4 -7
BITMAP
E0
E0
E0
E0
E0
E0
E0
E0
E0
E0
E0
E0
E0
E0
E0
E0
E0
E0
E0
E0
E0
E0
E0
E0
E0
E0
E0
E0
E0
E0
E0
E0
E0
E0
E0
ENDCHAR
STARTCHAR braceright
ENCODING 125
SWIDTH 389 0
DWIDTH 15 0
BBX 10 36 3 -8
BITMAP
F800
FC00
FE00
FE00
1E00
1E00
1E00
1E00
1E00
1E00
1E00
1E00
1E00
1E00
1E00
1F00
1FC0
07C0
07C0
1FC0
1F00
1E00
1E00
1E00
1E00
1E00
1E00
1E00
1E00
1E00
1E00
3E00
FE00
FE00
FC00
F000
ENDCHAR
STARTCHAR asciitilde
ENCODING 126
SWIDTH 584 0
DWIDTH 22 0
BBX 18 7 2 10
BITMAP
1E0000
3F81C0
7FC1C0
71E380
E0FF80
E07F00
003E00
ENDCHAR
ENDFONT
